
<region>
sample=../Samples/perc/room/conga/Conga_17_HitHM1_1_70_rr1_Far.wav
hivel=63
seq_length=8
amp_velcurve_63=1

<region>
sample=../Samples/perc/room/conga/Conga_17_HitHM1_1_70_rr2_Far.wav
hivel=63
seq_length=8
seq_position=2
amp_velcurve_63=1

<region>
sample=../Samples/perc/room/conga/Conga_17_HitHM1_1_70_rr3_Far.wav
hivel=63
seq_length=8
seq_position=3
amp_velcurve_63=1

<region>
sample=../Samples/perc/room/conga/Conga_17_HitHM1_1_70_rr4_Far.wav
hivel=63
seq_length=8
seq_position=4
amp_velcurve_63=1

<region>
sample=../Samples/perc/room/conga/Conga_17_HitHM1_1_70_rr5_Far.wav
hivel=63
seq_length=8
seq_position=5
amp_velcurve_63=1

<region>
sample=../Samples/perc/room/conga/Conga_17_HitHM1_1_70_rr6_Far.wav
hivel=63
seq_length=8
seq_position=6
amp_velcurve_63=1

<region>
sample=../Samples/perc/room/conga/Conga_17_HitHM1_1_70_rr7_Far.wav
hivel=63
seq_length=8
seq_position=7
amp_velcurve_63=1

<region>
sample=../Samples/perc/room/conga/Conga_17_HitHM1_1_70_rr8_Far.wav
hivel=63
seq_length=8
seq_position=8
amp_velcurve_63=1

<region>
sample=../Samples/perc/room/conga/Conga_17_HitHM1_71_127_rr1_Far.wav
lovel=64
seq_length=8

<region>
sample=../Samples/perc/room/conga/Conga_17_HitHM1_71_127_rr2_Far.wav
lovel=64
seq_length=8
seq_position=2

<region>
sample=../Samples/perc/room/conga/Conga_17_HitHM1_71_127_rr3_Far.wav
lovel=64
seq_length=8
seq_position=3

<region>
sample=../Samples/perc/room/conga/Conga_17_HitHM1_71_127_rr4_Far.wav
lovel=64
seq_length=8
seq_position=4

<region>
sample=../Samples/perc/room/conga/Conga_17_HitHM1_71_127_rr5_Far.wav
lovel=64
seq_length=8
seq_position=5

<region>
sample=../Samples/perc/room/conga/Conga_17_HitHM1_71_127_rr6_Far.wav
lovel=64
seq_length=8
seq_position=6

<region>
sample=../Samples/perc/room/conga/Conga_17_HitHM1_71_127_rr7_Far.wav
lovel=64
seq_length=8
seq_position=7

<region>
sample=../Samples/perc/room/conga/Conga_17_HitHM1_71_127_rr8_Far.wav
lovel=64
seq_length=8
seq_position=8
